<mxfile host="app.diagrams.net" modified="2022-01-06T22:29:58.346Z" agent="5.0 (Macintosh; Intel Mac OS X 10_15_7) AppleWebKit/537.36 (KHTML, like Gecko) Chrome/96.0.4664.110 Safari/537.36" etag="SeP0kdqIv7CNEGVqovWW" version="15.5.8" type="github">
  <diagram name="Page-1" id="efa7a0a1-bf9b-a30e-e6df-94a7791c09e9">
    <mxGraphModel dx="786" dy="769" grid="1" gridSize="10" guides="1" tooltips="1" connect="1" arrows="1" fold="1" page="1" pageScale="1" pageWidth="826" pageHeight="1169" background="none" math="0" shadow="0">
      <root>
        <mxCell id="0" />
        <mxCell id="1" parent="0" />
        <mxCell id="knO24eakVV144Z28mufV-114" value="&lt;p style=&quot;margin: 0px ; margin-top: 4px ; text-align: center ; text-decoration: underline&quot;&gt;&lt;b&gt;Projects&lt;/b&gt;&lt;/p&gt;&lt;hr&gt;&lt;p style=&quot;margin: 0px ; margin-left: 8px&quot;&gt;about&lt;/p&gt;&lt;p style=&quot;margin: 0px ; margin-left: 8px&quot;&gt;&lt;span&gt;looking_for [ uxd, sei ]&lt;/span&gt;&lt;br&gt;&lt;/p&gt;&lt;p style=&quot;margin: 0px ; margin-left: 8px&quot;&gt;tech_stack [ ]&lt;/p&gt;&lt;p style=&quot;margin: 0px ; margin-left: 8px&quot;&gt;title&lt;/p&gt;&lt;p style=&quot;margin: 0px ; margin-left: 8px&quot;&gt;recruiting = boolean&lt;/p&gt;&lt;p style=&quot;margin: 0px ; margin-left: 8px&quot;&gt;&lt;br&gt;&lt;/p&gt;&lt;p style=&quot;margin: 0px ; margin-left: 8px&quot;&gt;has_one_to_many users&lt;/p&gt;" style="verticalAlign=top;align=left;overflow=fill;fontSize=12;fontFamily=Helvetica;html=1;strokeColor=#003366;shadow=1;fillColor=#D4E1F5;fontColor=#003366" vertex="1" parent="1">
          <mxGeometry x="60" y="470" width="240" height="165" as="geometry" />
        </mxCell>
        <mxCell id="knO24eakVV144Z28mufV-115" value="&lt;p style=&quot;margin: 0px ; margin-top: 4px ; text-align: center ; text-decoration: underline&quot;&gt;&lt;b&gt;User&lt;/b&gt;&lt;/p&gt;&lt;hr&gt;&lt;p style=&quot;margin: 0px ; margin-left: 8px&quot;&gt;about = var_char(360)&lt;br&gt;&lt;/p&gt;&lt;p style=&quot;margin: 0px ; margin-left: 8px&quot;&gt;email&lt;/p&gt;&lt;p style=&quot;margin: 0px ; margin-left: 8px&quot;&gt;fun_fact = var_char(180)&lt;br&gt;&lt;/p&gt;&lt;p style=&quot;margin: 0px ; margin-left: 8px&quot;&gt;first_name&lt;/p&gt;&lt;p style=&quot;margin: 0px ; margin-left: 8px&quot;&gt;last_name&lt;/p&gt;&lt;p style=&quot;margin: 0px ; margin-left: 8px&quot;&gt;password_digest&lt;/p&gt;&lt;p style=&quot;margin: 0px ; margin-left: 8px&quot;&gt;&lt;span&gt;role&lt;/span&gt;&lt;br&gt;&lt;/p&gt;&lt;p style=&quot;margin: 0px ; margin-left: 8px&quot;&gt;skills [ ]&lt;/p&gt;&lt;p style=&quot;margin: 0px ; margin-left: 8px&quot;&gt;&lt;span&gt;seeking [ ]&lt;/span&gt;&lt;br&gt;&lt;/p&gt;&lt;p style=&quot;margin: 0px ; margin-left: 8px&quot;&gt;&lt;br&gt;&lt;/p&gt;&lt;p style=&quot;margin: 0px ; margin-left: 8px&quot;&gt;&lt;span&gt;has_one_to_many interested_projects&lt;/span&gt;&lt;br&gt;&lt;/p&gt;&lt;p style=&quot;margin: 0px ; margin-left: 8px&quot;&gt;&lt;span&gt;has_one_to_many messages&lt;/span&gt;&lt;br&gt;&lt;/p&gt;" style="verticalAlign=top;align=left;overflow=fill;fontSize=12;fontFamily=Helvetica;html=1;strokeColor=#003366;shadow=1;fillColor=#D4E1F5;fontColor=#003366" vertex="1" parent="1">
          <mxGeometry x="60" y="81.63999999999999" width="220" height="228.36" as="geometry" />
        </mxCell>
        <mxCell id="knO24eakVV144Z28mufV-116" value="" style="endArrow=ERoneToMany;endSize=12;startArrow=ERoneToMany;startSize=14;startFill=0;edgeStyle=orthogonalEdgeStyle;endFill=0;" edge="1" parent="1" source="knO24eakVV144Z28mufV-115">
          <mxGeometry x="640" y="400" as="geometry">
            <mxPoint x="640" y="400" as="sourcePoint" />
            <mxPoint x="171" y="470" as="targetPoint" />
          </mxGeometry>
        </mxCell>
        <mxCell id="knO24eakVV144Z28mufV-117" value="0..n" style="resizable=0;align=left;verticalAlign=top;labelBackgroundColor=#ffffff;fontSize=10;strokeColor=#003366;shadow=1;fillColor=#D4E1F5;fontColor=#003366" connectable="0" vertex="1" parent="knO24eakVV144Z28mufV-116">
          <mxGeometry x="-1" relative="1" as="geometry">
            <mxPoint x="10" as="offset" />
          </mxGeometry>
        </mxCell>
        <mxCell id="knO24eakVV144Z28mufV-118" value="1" style="resizable=0;align=right;verticalAlign=top;labelBackgroundColor=#ffffff;fontSize=10;strokeColor=#003366;shadow=1;fillColor=#D4E1F5;fontColor=#003366" connectable="0" vertex="1" parent="knO24eakVV144Z28mufV-116">
          <mxGeometry x="1" relative="1" as="geometry">
            <mxPoint x="20" y="-24.99999999999981" as="offset" />
          </mxGeometry>
        </mxCell>
        <mxCell id="knO24eakVV144Z28mufV-119" style="edgeStyle=orthogonalEdgeStyle;rounded=0;orthogonalLoop=1;jettySize=auto;html=1;entryX=1;entryY=0.5;entryDx=0;entryDy=0;startArrow=ERoneToMany;startFill=0;endArrow=ERone;endFill=0;" edge="1" parent="1" source="knO24eakVV144Z28mufV-121" target="knO24eakVV144Z28mufV-114">
          <mxGeometry relative="1" as="geometry">
            <Array as="points">
              <mxPoint x="330" y="395" />
              <mxPoint x="330" y="553" />
            </Array>
          </mxGeometry>
        </mxCell>
        <mxCell id="knO24eakVV144Z28mufV-120" style="edgeStyle=orthogonalEdgeStyle;rounded=0;orthogonalLoop=1;jettySize=auto;html=1;entryX=1;entryY=0.75;entryDx=0;entryDy=0;startArrow=ERoneToMany;startFill=0;endArrow=ERone;endFill=0;" edge="1" parent="1" source="knO24eakVV144Z28mufV-121" target="knO24eakVV144Z28mufV-115">
          <mxGeometry relative="1" as="geometry" />
        </mxCell>
        <mxCell id="knO24eakVV144Z28mufV-121" value="&lt;p style=&quot;margin: 0px ; margin-top: 4px ; text-align: center ; text-decoration: underline&quot;&gt;&lt;b&gt;Join_user_to_project&lt;/b&gt;&lt;/p&gt;&lt;hr&gt;&lt;p style=&quot;margin: 0px ; margin-left: 8px&quot;&gt;FRK user&lt;/p&gt;&lt;p style=&quot;margin: 0px ; margin-left: 8px&quot;&gt;FRK projects&lt;/p&gt;" style="verticalAlign=top;align=left;overflow=fill;fontSize=12;fontFamily=Helvetica;html=1;strokeColor=#003366;shadow=1;fillColor=#D4E1F5;fontColor=#003366" vertex="1" parent="1">
          <mxGeometry x="380" y="360" width="170" height="70" as="geometry" />
        </mxCell>
        <mxCell id="knO24eakVV144Z28mufV-122" style="edgeStyle=orthogonalEdgeStyle;rounded=0;orthogonalLoop=1;jettySize=auto;html=1;startArrow=ERone;startFill=0;endArrow=ERoneToMany;endFill=0;exitX=0;exitY=0.5;exitDx=0;exitDy=0;" edge="1" parent="1" source="knO24eakVV144Z28mufV-125" target="knO24eakVV144Z28mufV-115">
          <mxGeometry relative="1" as="geometry" />
        </mxCell>
        <mxCell id="knO24eakVV144Z28mufV-123" value="&lt;p style=&quot;margin: 0px ; margin-top: 4px ; text-align: center ; text-decoration: underline&quot;&gt;&lt;b&gt;Messages&lt;/b&gt;&lt;/p&gt;&lt;hr&gt;&lt;p style=&quot;margin: 0px ; margin-left: 8px&quot;&gt;content&lt;/p&gt;&lt;p style=&quot;margin: 0px ; margin-left: 8px&quot;&gt;time_stamp&lt;/p&gt;&lt;p style=&quot;margin: 0px ; margin-left: 8px&quot;&gt;&lt;br&gt;&lt;/p&gt;&lt;p style=&quot;margin: 0px ; margin-left: 8px&quot;&gt;&lt;br&gt;&lt;/p&gt;&lt;p style=&quot;margin: 0px ; margin-left: 8px&quot;&gt;&lt;span&gt;belongs_to conversation&lt;/span&gt;&lt;br&gt;&lt;/p&gt;&lt;p style=&quot;margin: 0px ; margin-left: 8px&quot;&gt;&lt;span&gt;has_one sender&lt;/span&gt;&lt;/p&gt;&lt;p style=&quot;margin: 0px ; margin-left: 8px&quot;&gt;has_one receiver&lt;/p&gt;&lt;p style=&quot;margin: 0px ; margin-left: 8px&quot;&gt;&lt;span&gt;FRK project&lt;/span&gt;&lt;/p&gt;" style="verticalAlign=top;align=left;overflow=fill;fontSize=12;fontFamily=Helvetica;html=1;strokeColor=#003366;shadow=1;fillColor=#D4E1F5;fontColor=#003366" vertex="1" parent="1">
          <mxGeometry x="630" y="200" width="170" height="150" as="geometry" />
        </mxCell>
        <mxCell id="knO24eakVV144Z28mufV-124" style="edgeStyle=orthogonalEdgeStyle;rounded=0;orthogonalLoop=1;jettySize=auto;html=1;entryX=0;entryY=0.5;entryDx=0;entryDy=0;startArrow=ERone;startFill=0;endArrow=ERoneToMany;endFill=0;" edge="1" parent="1" source="knO24eakVV144Z28mufV-125" target="knO24eakVV144Z28mufV-123">
          <mxGeometry relative="1" as="geometry" />
        </mxCell>
        <mxCell id="knO24eakVV144Z28mufV-125" value="&lt;p style=&quot;margin: 0px ; margin-top: 4px ; text-align: center ; text-decoration: underline&quot;&gt;&lt;b&gt;Join_Conversation&lt;/b&gt;&lt;/p&gt;&lt;p style=&quot;margin: 0px ; margin-left: 8px&quot;&gt;FRK user (sender)&lt;/p&gt;&lt;p style=&quot;margin: 0px ; margin-left: 8px&quot;&gt;&lt;span style=&quot;color: rgba(0 , 0 , 0 , 0) ; font-family: monospace ; font-size: 0px&quot;&gt;%3CmxGraphModel%3E%3Croot%3E%3CmxCell%20id%3D%220%22%2F%3E%3CmxCell%20id%3D%221%22%20parent%3D%220%22%2F%3E%3CmxCell%20id%3D%222%22%20value%3D%22%26lt%3Bp%20style%3D%26quot%3Bmargin%3A%200px%20%3B%20margin-top%3A%204px%20%3B%20text-align%3A%20center%20%3B%20text-decoration%3A%20underline%26quot%3B%26gt%3B%26lt%3Bb%26gt%3BJoin_user_to_project%26lt%3B%2Fb%26gt%3B%26lt%3B%2Fp%26gt%3B%26lt%3Bhr%26gt%3B%26lt%3Bp%20style%3D%26quot%3Bmargin%3A%200px%20%3B%20margin-left%3A%208px%26quot%3B%26gt%3BFRK%20user%26lt%3B%2Fp%26gt%3B%26lt%3Bp%20style%3D%26quot%3Bmargin%3A%200px%20%3B%20margin-left%3A%208px%26quot%3B%26gt%3BFRK%20projects%26lt%3B%2Fp%26gt%3B%22%20style%3D%22verticalAlign%3Dtop%3Balign%3Dleft%3Boverflow%3Dfill%3BfontSize%3D12%3BfontFamily%3DHelvetica%3Bhtml%3D1%3BstrokeColor%3D%23003366%3Bshadow%3D1%3BfillColor%3D%23D4E1F5%3BfontColor%3D%23003366%22%20vertex%3D%221%22%20parent%3D%221%22%3E%3CmxGeometry%20x%3D%22360%22%20y%3D%22300%22%20width%3D%22170%22%20height%3D%2270%22%20as%3D%22geometry%22%2F%3E%3C%2FmxCell%3E%3C%2Froot%3E%3C%2FmxGraphModel%3E&lt;/span&gt;&lt;span&gt;FRK user (receiver)&lt;/span&gt;&lt;/p&gt;&lt;p style=&quot;margin: 0px ; margin-left: 8px&quot;&gt;FRK projects&lt;/p&gt;&lt;p style=&quot;margin: 0px ; margin-left: 8px&quot;&gt;has_many messages&lt;/p&gt;" style="verticalAlign=top;align=left;overflow=fill;fontSize=12;fontFamily=Helvetica;html=1;strokeColor=#003366;shadow=1;fillColor=#D4E1F5;fontColor=#003366" vertex="1" parent="1">
          <mxGeometry x="430" y="60" width="280" height="80" as="geometry" />
        </mxCell>
      </root>
    </mxGraphModel>
  </diagram>
</mxfile>
